<svg id="background" xmlns="http://www.w3.org/2000/svg" width="2688" height="1512" viewBox="0 0 2688 1512">
  <rect id="Rectangle_1" data-name="Rectangle 1" width="2688" height="1512" fill="#fff"/>
  <rect id="Rectangle_2" data-name="Rectangle 2" width="2688" height="253.959" transform="translate(0 .041)" fill="#cfccdf" opacity="0.5" style="mix-blend-mode: multiply;isolation: isolate"/>
  <g id="Group_5" data-name="Group 5">
    <g id="Group_1" data-name="Group 1">
      <path id="Path_1" data-name="Path 1" d="M0,1398.092,54.766,1512H59.7L0,1387.8Z" fill="#fff"/>
      <path id="Path_2" data-name="Path 2" d="M42.794,1154.644,213.342,1512H218.2L47.761,1154.772Z" fill="#fff"/>
      <path id="Path_3" data-name="Path 3" d="M202.344,1158.744,369.69,1512h4.786L207.241,1158.869Z" fill="#fff"/>
      <path id="Path_4" data-name="Path 4" d="M359.668,1162.786,523.872,1512H528.6L364.481,1162.909Z" fill="#fff"/>
      <path id="Path_5" data-name="Path 5" d="M514.783,1166.771,675.93,1512H680.6L519.529,1166.893Z" fill="#fff"/>
      <path id="Path_6" data-name="Path 6" d="M667.749,1170.7,825.907,1512h4.6L672.444,1170.822Z" fill="#fff"/>
      <path id="Path_7" data-name="Path 7" d="M818.61,1174.577,973.859,1512h4.53L823.242,1174.7Z" fill="#fff"/>
      <path id="Path_8" data-name="Path 8" d="M967.411,1178.4,1119.8,1512h4.469L971.979,1178.518Z" fill="#fff"/>
      <path id="Path_9" data-name="Path 9" d="M1114.207,1182.172,1263.793,1512h4.419L1118.7,1182.287Z" fill="#fff"/>
      <path id="Path_10" data-name="Path 10" d="M1259.01,1185.892,1405.864,1512h4.36l-146.783-325.994Z" fill="#fff"/>
      <path id="Path_11" data-name="Path 11" d="M1401.874,1189.563,1546.056,1512h4.3l-144.1-322.325Z" fill="#fff"/>
      <path id="Path_12" data-name="Path 12" d="M1542.838,1193.184,1684.417,1512h4.238l-141.488-318.7Z" fill="#fff"/>
      <path id="Path_13" data-name="Path 13" d="M1681.94,1196.758,1820.961,1512h4.193l-138.943-315.132Z" fill="#fff"/>
      <path id="Path_14" data-name="Path 14" d="M1819.229,1200.285,1955.737,1512h4.137l-136.443-311.606Z" fill="#fff"/>
      <path id="Path_15" data-name="Path 15" d="M1954.716,1203.767,2088.775,1512h4.086l-133.984-308.127Z" fill="#fff"/>
      <path id="Path_16" data-name="Path 16" d="M2088.447,1207.2,2220.109,1512h4.034l-131.589-304.692Z" fill="#fff"/>
      <path id="Path_17" data-name="Path 17" d="M2220.457,1210.594,2349.783,1512h3.972l-129.244-301.3Z" fill="#fff"/>
      <path id="Path_18" data-name="Path 18" d="M2350.79,1213.943,2477.81,1512h3.93l-126.959-297.955Z" fill="#fff"/>
      <path id="Path_19" data-name="Path 19" d="M2479.456,1217.248,2604.226,1512h3.881L2483.4,1217.35Z" fill="#fff"/>
      <path id="Path_20" data-name="Path 20" d="M2610.4,1220.613l-3.9-.1,81.5,193.83V1405.2Z" fill="#fff"/>
    </g>
    <g id="Group_4" data-name="Group 4">
      <g id="Group_2" data-name="Group 2">
        <path id="Path_21" data-name="Path 21" d="M0,1398.092,54.766,1512H59.7L0,1387.8Z" fill="#fff"/>
        <path id="Path_22" data-name="Path 22" d="M42.794,1154.644,213.342,1512H218.2L47.761,1154.772Z" fill="#fff"/>
        <path id="Path_23" data-name="Path 23" d="M202.344,1158.744,369.69,1512h4.786L207.241,1158.869Z" fill="#fff"/>
        <path id="Path_24" data-name="Path 24" d="M359.668,1162.786,523.872,1512H528.6L364.481,1162.909Z" fill="#fff"/>
        <path id="Path_25" data-name="Path 25" d="M514.783,1166.771,675.93,1512H680.6L519.529,1166.893Z" fill="#fff"/>
        <path id="Path_26" data-name="Path 26" d="M667.749,1170.7,825.907,1512h4.6L672.444,1170.822Z" fill="#fff"/>
        <path id="Path_27" data-name="Path 27" d="M818.61,1174.577,973.859,1512h4.53L823.242,1174.7Z" fill="#fff"/>
        <path id="Path_28" data-name="Path 28" d="M967.411,1178.4,1119.8,1512h4.469L971.979,1178.518Z" fill="#fff"/>
        <path id="Path_29" data-name="Path 29" d="M1114.207,1182.172,1263.793,1512h4.419L1118.7,1182.287Z" fill="#fff"/>
        <path id="Path_30" data-name="Path 30" d="M1259.01,1185.892,1405.864,1512h4.36l-146.783-325.994Z" fill="#fff"/>
        <path id="Path_31" data-name="Path 31" d="M1401.874,1189.563,1546.056,1512h4.3l-144.1-322.325Z" fill="#fff"/>
        <path id="Path_32" data-name="Path 32" d="M1542.838,1193.184,1684.417,1512h4.238l-141.488-318.7Z" fill="#fff"/>
        <path id="Path_33" data-name="Path 33" d="M1681.94,1196.758,1820.961,1512h4.193l-138.943-315.132Z" fill="#fff"/>
        <path id="Path_34" data-name="Path 34" d="M1819.229,1200.285,1955.737,1512h4.137l-136.443-311.606Z" fill="#fff"/>
        <path id="Path_35" data-name="Path 35" d="M1954.716,1203.767,2088.775,1512h4.086l-133.984-308.127Z" fill="#fff"/>
        <path id="Path_36" data-name="Path 36" d="M2088.447,1207.2,2220.109,1512h4.034l-131.589-304.692Z" fill="#fff"/>
        <path id="Path_37" data-name="Path 37" d="M2220.457,1210.594,2349.783,1512h3.972l-129.244-301.3Z" fill="#fff"/>
        <path id="Path_38" data-name="Path 38" d="M2350.79,1213.943,2477.81,1512h3.93l-126.959-297.955Z" fill="#fff"/>
        <path id="Path_39" data-name="Path 39" d="M2479.456,1217.248,2604.226,1512h3.881L2483.4,1217.35Z" fill="#fff"/>
        <path id="Path_40" data-name="Path 40" d="M2610.4,1220.613l-3.9-.1,81.5,193.83V1405.2Z" fill="#fff"/>
      </g>
      <g id="Group_3" data-name="Group 3">
        <path id="Path_41" data-name="Path 41" d="M2688,1501.954,2683.135,1512H2688Z" fill="#fff"/>
        <path id="Path_42" data-name="Path 42" d="M2688,1167.442,2522.379,1512h4.936L2688,1177.788Z" fill="#fff"/>
        <path id="Path_43" data-name="Path 43" d="M2534.32,1154.772,2363.886,1512h4.854l170.548-357.356Z" fill="#fff"/>
        <path id="Path_44" data-name="Path 44" d="M2374.84,1158.869,2207.6,1512h4.786l167.346-353.256Z" fill="#fff"/>
        <path id="Path_45" data-name="Path 45" d="M2217.6,1162.909,2053.478,1512h4.731l164.2-349.214Z" fill="#fff"/>
        <path id="Path_46" data-name="Path 46" d="M2062.552,1166.893,1901.485,1512h4.666L2067.3,1166.771Z" fill="#fff"/>
        <path id="Path_47" data-name="Path 47" d="M1909.637,1170.822,1751.57,1512h4.6l158.158-341.3Z" fill="#fff"/>
        <path id="Path_48" data-name="Path 48" d="M1758.839,1174.7,1603.692,1512h4.53l155.249-337.423Z" fill="#fff"/>
        <path id="Path_49" data-name="Path 49" d="M1610.1,1178.518,1457.809,1512h4.469l152.392-333.6Z" fill="#fff"/>
        <path id="Path_50" data-name="Path 50" d="M1463.382,1182.287,1313.869,1512h4.419l149.586-329.828Z" fill="#fff"/>
        <path id="Path_51" data-name="Path 51" d="M1318.64,1186.006,1171.857,1512h4.36l146.854-326.108Z" fill="#fff"/>
        <path id="Path_52" data-name="Path 52" d="M1175.821,1189.675,1031.72,1512h4.3l144.182-322.437Z" fill="#fff"/>
        <path id="Path_53" data-name="Path 53" d="M1034.915,1193.3,893.426,1512h4.237l141.58-318.816Z" fill="#fff"/>
        <path id="Path_54" data-name="Path 54" d="M895.87,1196.868,756.926,1512h4.193l139.022-315.242Z" fill="#fff"/>
        <path id="Path_55" data-name="Path 55" d="M758.649,1200.394,622.206,1512h4.137l136.508-311.715Z" fill="#fff"/>
        <path id="Path_56" data-name="Path 56" d="M623.2,1203.873,489.22,1512h4.086l134.059-308.233Z" fill="#fff"/>
        <path id="Path_57" data-name="Path 57" d="M489.527,1207.308,357.938,1512h4.034l131.662-304.8Z" fill="#fff"/>
        <path id="Path_58" data-name="Path 58" d="M357.57,1210.7,228.326,1512H232.3l129.326-301.406Z" fill="#fff"/>
        <path id="Path_59" data-name="Path 59" d="M227.3,1214.045,100.342,1512h3.93l127.019-298.057Z" fill="#fff"/>
        <path id="Path_60" data-name="Path 60" d="M98.686,1217.35,0,1450.51v9.176l102.625-242.438Z" fill="#fff"/>
      </g>
    </g>
  </g>
  <g id="Group_6" data-name="Group 6" opacity="0.3" style="mix-blend-mode: multiply;isolation: isolate">
    <path id="Path_61" data-name="Path 61" d="M2491.25,1332.961c-18.478-.394-127.307-9.8-126.263-9.789-19.612-3.417-71.568-4.092-127.461-2.31-26.634.175-52.507.706-77.26,1.56-14.65.505-41.691,4.133-41.427,4.709.178.19.356.4.532.613,2.866,2.063-40.515-1.124-47.486-.6q-18.308,1.368-35.006,2.991c-5.26,1.808-102.1,15.8-107.327,17.836-62.8,24.457,149.6,32.872,175.759,34.631,30.293,2.037,209.819,10.972,299.657.713C2455.817,1377.5,2618,1340.087,2491.25,1332.961Z" fill="#cfccdf"/>
    <path id="Path_62" data-name="Path 62" d="M814.07,1333.935l-18.989-2.824q-11.6-1.506-25.171-2.828c-23.88-2.322-295.724-6.512-313.143-5.942-.694,1.729-32.672,1.232-32.979,1.245q-20.018.859-39.018,1.932c-.1.382-41.9,2.676-50.61,3.346-29.57,2.271-121.133,14.42-121.133,14.42-27.779,5.354-43.6,11.256-43.5,17.252.139,8.1,71.279,7.334,119.758,12.317,24.7,2.539,45.947,1.372,79.39,2.791,30.76,1.3,31.169,13,67.238,13.188,24.408.127,49.8-.02,75.874-.466,67.44-1.156,130.283-4.159,183.187-8.391,95.13-7.609,158.123-19.191,157.918-31.146C852.8,1343.218,838.772,1338.166,814.07,1333.935Z" fill="#cfccdf"/>
    <path id="Path_63" data-name="Path 63" d="M1680.041,1340.007l-18.935-3.505q-11.571-1.891-25.117-3.6c-23.836-3-295.573-11.81-313-11.416-.726,1.963-32.692.922-33,.933q-20.032.686-39.049,1.628c-.109.434-41.94,2.435-50.665,3.071-29.608,2.156-121.381,14.67-121.381,14.67-27.873,5.7-43.8,12.2-43.8,19.052-.008,9.255,71.137,9.427,119.521,15.834,24.652,3.264,45.916,2.246,79.33,4.361,30.733,1.945,30.93,15.3,66.992,16.051,24.4.507,49.8.714,75.874.59,67.453-.321,130.344-2.82,183.319-6.868,95.256-7.279,158.453-19.57,158.465-33.221C1718.6,1351.178,1704.664,1345.2,1680.041,1340.007Z" fill="#cfccdf"/>
  </g>
</svg>
